<svg xmlns="http://www.w3.org/2000/svg" width="576" height="64" viewBox="0 0 576 64">
  <!-- 大报晨刊 · 编辑主义复古大报 · 衬线+栏线风（9 枚 · 64×64 · 主体 currentColor · .ac 红 #b8322f · 纯几何不烘字） -->
  <defs>
    <style>.ac{fill:#b8322f}.dk{fill:#000;opacity:.18}.wh{fill:#fffdf7;opacity:.9}</style>
    <symbol id="bs-overview" viewBox="0 0 64 64">
      <rect x="9" y="11" width="46" height="42" fill="currentColor"/>
      <rect x="9" y="11" width="46" height="6" class="dk"/>
      <rect x="11" y="19" width="42" height="32" class="wh"/>
      <rect x="11" y="19" width="42" height="32" fill="none" stroke="#000" stroke-opacity=".25" stroke-width="1"/>
      <path d="M14 22 L14 49" stroke="#000" stroke-opacity=".4" stroke-width="1"/>
      <path d="M28 22 L28 49" stroke="#000" stroke-opacity=".4" stroke-width="1"/>
      <path d="M42 22 L42 49" stroke="#000" stroke-opacity=".4" stroke-width="1"/>
      <rect x="11" y="11" width="42" height="3.5" class="ac"/>
      <rect x="14" y="25" width="12" height="2.5" fill="#000" opacity=".35"/>
      <rect x="31" y="25" width="9" height="2.5" fill="#000" opacity=".35"/>
      <rect x="45" y="25" width="7" height="2.5" fill="#000" opacity=".35"/>
    </symbol>
    <symbol id="bs-library" viewBox="0 0 64 64">
      <path d="M14 12 L50 12 L50 53 L14 53 Z" fill="currentColor"/>
      <path d="M14 12 L50 12 L50 53 L14 53 Z" fill="none" stroke="#fffdf7" stroke-opacity=".35" stroke-width="2"/>
      <rect x="18" y="18" width="28" height="3.5" class="wh" opacity=".7"/>
      <rect x="18" y="25" width="28" height="2.5" class="wh" opacity=".55"/>
      <rect x="18" y="31" width="28" height="2.5" class="wh" opacity=".55"/>
      <rect x="18" y="37" width="20" height="2.5" class="wh" opacity=".55"/>
      <rect x="18" y="44" width="14" height="5" class="ac"/>
      <rect x="18" y="44" width="14" height="5" fill="none" stroke="#fffdf7" stroke-opacity=".5" stroke-width="1"/>
    </symbol>
    <symbol id="bs-favorites" viewBox="0 0 64 64">
      <path d="M14 40 Q10 28 20 24 Q30 20 32 28 Q34 20 44 24 Q54 28 50 40 Q46 50 32 56 Q18 50 14 40 Z" fill="currentColor"/>
      <path d="M22 34 Q26 28 30 32" stroke="#fffdf7" stroke-opacity=".7" stroke-width="3" stroke-linecap="round" fill="none"/>
      <circle cx="44" cy="14" r="8" class="ac"/>
      <path d="M44 10.5 L45 13 L47.5 14 L45 15 L44 17.5 L43 15 L40.5 14 L43 13 Z" class="wh"/>
    </symbol>
    <symbol id="bs-ranking" viewBox="0 0 64 64">
      <path d="M22 6 L42 6 L37 24 L27 24 Z" class="ac"/>
      <circle cx="32" cy="38" r="16" fill="currentColor"/>
      <circle cx="32" cy="38" r="11" fill="none" stroke="#fffdf7" stroke-opacity=".5" stroke-width="2.5"/>
      <path d="M32 31 L34.5 36 L40 37 L36 41 L37 46 L32 43.5 L27 46 L28 41 L24 37 L29.5 36 Z" class="wh"/>
      <circle cx="20" cy="50" r="2.5" fill="currentColor"/>
      <circle cx="44" cy="50" r="2.5" fill="currentColor"/>
    </symbol>
    <symbol id="bs-journal" viewBox="0 0 64 64">
      <path d="M8 14 Q16 10 24 14 L24 52 Q16 48 8 52 Z" fill="currentColor"/>
      <path d="M56 14 Q48 10 40 14 L40 52 Q48 48 56 52 Z" fill="currentColor"/>
      <rect x="24" y="12" width="16" height="42" class="wh"/>
      <rect x="24" y="12" width="16" height="42" class="dk"/>
      <rect x="24" y="11" width="16" height="3" class="ac"/>
      <rect x="28" y="20" width="8" height="2" fill="#000" opacity=".5"/>
      <rect x="28" y="26" width="8" height="2" fill="#000" opacity=".4"/>
      <rect x="28" y="32" width="8" height="2" fill="#000" opacity=".4"/>
      <rect x="28" y="38" width="6" height="2" fill="#000" opacity=".4"/>
      <circle cx="32" cy="48" r="3" class="ac"/>
    </symbol>
    <symbol id="bs-sources" viewBox="0 0 64 64">
      <circle cx="32" cy="32" r="22" fill="currentColor"/>
      <circle cx="32" cy="32" r="22" fill="none" stroke="#000" stroke-opacity=".25" stroke-width="2.5"/>
      <circle cx="32" cy="32" r="16" class="wh"/>
      <circle cx="32" cy="32" r="16" fill="none" stroke="#000" stroke-opacity=".4" stroke-width="1.5"/>
      <path d="M32 32 L32 18 A14 14 0 0 1 45 28 Z" fill="#000" opacity=".55"/>
      <circle cx="32" cy="32" r="3" class="ac"/>
      <rect x="31" y="32" width="2" height="6" class="ac"/>
    </symbol>
    <symbol id="bs-terms" viewBox="0 0 64 64">
      <rect x="13" y="9" width="38" height="48" rx="3" fill="currentColor"/>
      <rect x="13" y="9" width="38" height="48" rx="3" fill="none" stroke="#fffdf7" stroke-opacity=".35" stroke-width="1.5"/>
      <rect x="18" y="17" width="20" height="3" class="wh" opacity=".75"/>
      <rect x="18" y="24" width="28" height="2" class="wh" opacity=".5"/>
      <rect x="18" y="29" width="28" height="2" class="wh" opacity=".5"/>
      <rect x="18" y="34" width="20" height="2" class="wh" opacity=".5"/>
      <rect x="18" y="41" width="28" height="5" class="ac"/>
      <rect x="18" y="41" width="28" height="5" fill="none" stroke="#fffdf7" stroke-opacity=".4" stroke-width="1"/>
      <path d="M22 49 L24 47 L26 49 L28 47 L30 49" fill="none" stroke="#fffdf7" stroke-opacity=".7" stroke-width="1.5" stroke-linecap="round"/>
    </symbol>
    <symbol id="bs-interests" viewBox="0 0 64 64">
      <path d="M11 10 L53 10 L53 54 L32 42 L11 54 Z" fill="currentColor"/>
      <path d="M11 10 L53 10 L53 14 L11 14 Z" class="ac"/>
      <path d="M32 22 L34.5 28 L41 29 L36 33.5 L37.5 40 L32 36.5 L26.5 40 L28 33.5 L23 29 L29.5 28 Z" class="wh"/>
      <circle cx="20" cy="44" r="1.6" class="wh"/>
      <circle cx="44" cy="44" r="1.6" class="wh"/>
      <circle cx="32" cy="48" r="1.6" class="wh"/>
    </symbol>
    <symbol id="bs-settings" viewBox="0 0 64 64">
      <g fill="currentColor">
        <rect x="29" y="10" width="6" height="9" rx="2.5"/>
        <rect x="29" y="10" width="6" height="9" rx="2.5" transform="rotate(45 32 32)"/>
        <rect x="29" y="10" width="6" height="9" rx="2.5" transform="rotate(90 32 32)"/>
        <rect x="29" y="10" width="6" height="9" rx="2.5" transform="rotate(135 32 32)"/>
        <rect x="29" y="10" width="6" height="9" rx="2.5" transform="rotate(180 32 32)"/>
        <rect x="29" y="10" width="6" height="9" rx="2.5" transform="rotate(225 32 32)"/>
        <rect x="29" y="10" width="6" height="9" rx="2.5" transform="rotate(270 32 32)"/>
        <rect x="29" y="10" width="6" height="9" rx="2.5" transform="rotate(315 32 32)"/>
        <circle cx="32" cy="32" r="14"/>
      </g>
      <circle cx="32" cy="32" r="6" class="ac"/>
      <circle cx="32" cy="32" r="2.2" class="wh"/>
    </symbol>
  </defs>
  <use href="#bs-overview"  x="0"   width="64" height="64" color="#1a1a1a"/>
  <use href="#bs-library"   x="64"  width="64" height="64" color="#1a1a1a"/>
  <use href="#bs-favorites" x="128" width="64" height="64" color="#1a1a1a"/>
  <use href="#bs-ranking"   x="192" width="64" height="64" color="#1a1a1a"/>
  <use href="#bs-journal"   x="256" width="64" height="64" color="#1a1a1a"/>
  <use href="#bs-sources"   x="320" width="64" height="64" color="#1a1a1a"/>
  <use href="#bs-terms"     x="384" width="64" height="64" color="#1a1a1a"/>
  <use href="#bs-interests" x="448" width="64" height="64" color="#1a1a1a"/>
  <use href="#bs-settings"  x="512" width="64" height="64" color="#1a1a1a"/>
</svg>