<svg xmlns="http://www.w3.org/2000/svg" width="576" height="64" viewBox="0 0 576 64">
  <!-- 墨韵东方 · 水墨国风侧栏图标组（9 枚 · 64×64 格线 · 主体 currentColor 墨色 · .ikac 朱砂红 #b03a2e / .ikwh 宣纸白） -->
  <defs>
    <style>
      .ikac { fill: #b03a2e; }
      .ikdk { fill: #000; opacity: .18; }
      .ikwh { fill: #fbf4e4; opacity: .94; }
    </style>
    <symbol id="ik-overview" viewBox="0 0 64 64">
      <rect x="14" y="26" width="36" height="24" rx="3" fill="currentColor"/>
      <rect x="14" y="26" width="36" height="24" rx="3" class="ikdk"/>
      <path d="M16 22 Q32 10 48 22" fill="none" stroke="currentColor" stroke-width="4" stroke-linecap="round"/>
      <rect x="24" y="12" width="16" height="12" rx="2" class="ikac"/>
      <rect x="20" y="32" width="24" height="3.5" rx="1.75" class="ikwh" opacity=".7"/>
      <rect x="20" y="40" width="18" height="3.5" rx="1.75" class="ikwh" opacity=".55"/>
      <circle cx="48" cy="40" r="2.5" class="ikac"/>
    </symbol>
    <symbol id="ik-library" viewBox="0 0 64 64">
      <rect x="12" y="8" width="40" height="48" rx="3" fill="currentColor"/>
      <rect x="12" y="8" width="40" height="48" rx="3" class="ikdk"/>
      <rect x="16" y="14" width="32" height="5" rx="2.5" class="ikac"/>
      <rect x="16" y="24" width="26" height="3" rx="1.5" class="ikwh" opacity=".7"/>
      <rect x="16" y="31" width="32" height="3" rx="1.5" class="ikwh" opacity=".6"/>
      <rect x="16" y="38" width="22" height="3" rx="1.5" class="ikwh" opacity=".5"/>
      <rect x="16" y="45" width="14" height="5" rx="2" class="ikac"/>
    </symbol>
    <symbol id="ik-favorites" viewBox="0 0 64 64">
      <path d="M32 8 L37 22 L52 24 L40 34 L44 50 L32 41 L20 50 L24 34 L12 24 L27 22 Z" fill="currentColor"/>
      <path d="M32 8 L37 22 L52 24 L40 34 L44 50 L32 41 L20 50 L24 34 L12 24 L27 22 Z" class="ikdk"/>
      <path d="M32 16 Q28 22 32 26 Q36 22 32 16" fill="none" stroke="#b03a2e" stroke-width="2" stroke-linecap="round"/>
      <path d="M32 38 L34 40 L36 37" stroke="#fbf4e4" stroke-width="2" stroke-linecap="round" fill="none"/>
    </symbol>
    <symbol id="ik-ranking" viewBox="0 0 64 64">
      <path d="M14 30 Q14 18 32 14 Q50 18 50 30 L50 34 Q50 46 32 50 Q14 46 14 34 Z" fill="currentColor"/>
      <path d="M42 10 Q48 6 52 10 Q54 14 50 17" fill="none" stroke="#b03a2e" stroke-width="3" stroke-linecap="round"/>
      <rect x="22" y="26" width="8" height="16" rx="2" fill="#fbf4e4" opacity=".8"/>
      <rect x="32" y="22" width="8" height="20" rx="2" fill="#fbf4e4" opacity=".65"/>
      <rect x="42" y="30" width="8" height="12" rx="2" fill="#b03a2e" opacity=".9"/>
    </symbol>
    <symbol id="ik-journal" viewBox="0 0 64 64">
      <path d="M12 14 L52 14 L52 52 L12 52 Z" fill="currentColor"/>
      <path d="M12 14 L52 14 L52 52 L12 52 Z" class="ikdk"/>
      <rect x="24" y="7" width="16" height="9" rx="2" class="ikac"/>
      <rect x="20" y="22" width="24" height="3" rx="1.5" class="ikwh" opacity=".7"/>
      <rect x="20" y="29" width="24" height="3" rx="1.5" class="ikwh" opacity=".55"/>
      <rect x="20" y="36" width="18" height="3" rx="1.5" class="ikwh" opacity=".5"/>
      <circle cx="45" cy="45" r="3.5" class="ikac"/>
    </symbol>
    <symbol id="ik-sources" viewBox="0 0 64 64">
      <path d="M10 44 Q18 20 54 10 Q52 34 30 46 Q20 52 10 44 Z" fill="currentColor"/>
      <path d="M10 44 Q18 20 54 10 Q52 34 30 46 Q20 52 10 44 Z" class="ikdk"/>
      <path d="M22 40 L48 16" stroke="#fbf4e4" stroke-width="2.5" stroke-linecap="round" opacity=".7"/>
      <circle cx="54" cy="9" r="4" class="ikac"/>
      <path d="M54 6 L55 8 L57 9 L55 10 L54 12 L53 10 L51 9 L53 8 Z" fill="#fbf4e4"/>
    </symbol>
    <symbol id="ik-terms" viewBox="0 0 64 64">
      <path d="M16 12 Q16 9 19 9 L45 9 Q48 9 48 12 L48 52 Q48 55 45 55 L19 55 Q16 55 16 52 Z" fill="currentColor"/>
      <path d="M16 12 Q16 9 19 9 L45 9 Q48 9 48 12 L48 52 Q48 55 45 55 L19 55 Q16 55 16 52 Z" class="ikdk"/>
      <rect x="14" y="26" width="36" height="8" rx="2" class="ikac"/>
      <rect x="14" y="26" width="36" height="8" rx="2" fill="none" stroke="#fbf4e4" stroke-opacity=".35" stroke-width="1.5"/>
      <rect x="26" y="15" width="16" height="3" rx="1.5" class="ikwh" opacity=".6"/>
      <rect x="26" y="42" width="16" height="3" rx="1.5" class="ikwh" opacity=".6"/>
      <rect x="26" y="48" width="11" height="3" rx="1.5" class="ikwh" opacity=".45"/>
    </symbol>
    <symbol id="ik-interests" viewBox="0 0 64 64">
      <path d="M14 10 Q14 6 18 6 L46 6 Q50 6 50 10 L50 46 Q50 50 46 50 L18 50 Q14 50 14 46 Z" fill="currentColor"/>
      <path d="M14 10 Q14 6 18 6 L46 6 Q50 6 50 10 L50 46 Q50 50 46 50 L18 50 Q14 50 14 46 Z" class="ikdk"/>
      <circle cx="24" cy="16" r="2" class="ikac"/>
      <circle cx="32" cy="16" r="2" class="ikac"/>
      <circle cx="40" cy="16" r="2" class="ikac"/>
      <path d="M24 22 Q24 30 32 33 Q40 30 40 22" fill="none" stroke="#b03a2e" stroke-width="2.5" stroke-linecap="round"/>
      <path d="M26 38 L30 36 L34 40 L38 36" fill="none" stroke="#fbf4e4" stroke-width="2" stroke-linecap="round"/>
    </symbol>
    <symbol id="ik-settings" viewBox="0 0 64 64">
      <g fill="currentColor">
        <rect x="29" y="10" width="6" height="9" rx="2.5"/>
        <rect x="29" y="10" width="6" height="9" rx="2.5" transform="rotate(45 32 32)"/>
        <rect x="29" y="10" width="6" height="9" rx="2.5" transform="rotate(90 32 32)"/>
        <rect x="29" y="10" width="6" height="9" rx="2.5" transform="rotate(135 32 32)"/>
        <rect x="29" y="10" width="6" height="9" rx="2.5" transform="rotate(180 32 32)"/>
        <rect x="29" y="10" width="6" height="9" rx="2.5" transform="rotate(225 32 32)"/>
        <rect x="29" y="10" width="6" height="9" rx="2.5" transform="rotate(270 32 32)"/>
        <rect x="29" y="10" width="6" height="9" rx="2.5" transform="rotate(315 32 32)"/>
        <circle cx="32" cy="32" r="14"/>
      </g>
      <circle cx="32" cy="32" r="5.5" class="ikac"/>
      <circle cx="32" cy="32" r="2" fill="#fbf4e4"/>
    </symbol>
  </defs>
  <use href="#ik-overview"  x="0"   width="64" height="64" color="#3a352d"/>
  <use href="#ik-library"   x="64"  width="64" height="64" color="#3a352d"/>
  <use href="#ik-favorites" x="128" width="64" height="64" color="#3a352d"/>
  <use href="#ik-ranking"   x="192" width="64" height="64" color="#3a352d"/>
  <use href="#ik-journal"   x="256" width="64" height="64" color="#3a352d"/>
  <use href="#ik-sources"   x="320" width="64" height="64" color="#3a352d"/>
  <use href="#ik-terms"     x="384" width="64" height="64" color="#3a352d"/>
  <use href="#ik-interests" x="448" width="64" height="64" color="#3a352d"/>
  <use href="#ik-settings"  x="512" width="64" height="64" color="#3a352d"/>
</svg>
