<svg xmlns="http://www.w3.org/2000/svg" width="576" height="64" viewBox="0 0 576 64">
  <!-- 纸面学报 →「羊皮研报」· 复古档案风侧栏图标组（9 枚 · 64×64 格线 · 主体 currentColor · .ac 铁锈红点缀） -->
  <defs>
    <style>
      .ac { fill: #8a2f1a; }
      .dk { fill: #000; opacity: .16; }
      .wh { fill: #fffdf7; opacity: .92; }
    </style>
    <symbol id="pc-overview" viewBox="0 0 64 64">
      <path d="M12 22 L52 22 L52 52 Q52 56 48 56 L16 56 Q12 56 12 52 Z" fill="currentColor"/>
      <rect x="10" y="18" width="44" height="6" rx="2" fill="currentColor"/>
      <rect x="10" y="18" width="44" height="6" rx="2" class="dk"/>
      <rect x="16" y="8" width="18" height="12" rx="2" class="wh"/>
      <rect x="34" y="12" width="14" height="8" rx="2" class="wh"/>
      <rect x="16" y="8" width="8" height="5" rx="2" class="ac"/>
      <rect x="20" y="32" width="24" height="3.5" rx="1.75" class="wh" opacity=".65"/>
      <rect x="20" y="40" width="18" height="3.5" rx="1.75" class="wh" opacity=".65"/>
      <rect x="20" y="48" width="12" height="3.5" rx="1.75" class="wh" opacity=".65"/>
    </symbol>
    <symbol id="pc-library" viewBox="0 0 64 64">
      <path d="M18 16 Q18 10 24 10 L40 10 Q46 10 46 16 L47 48 Q47 55 40 55 L24 55 Q17 55 17 48 Z" fill="currentColor"/>
      <path d="M20 12 Q30 8 44 12 L43 26 Q32 22 21 26 Z" class="dk"/>
      <rect x="27" y="30" width="10" height="7" rx="2" class="ac"/>
      <rect x="27" y="33.5" width="10" height="2" fill="#fffdf7" opacity=".8"/>
      <rect x="22" y="42" width="20" height="3" rx="1.5" class="wh" opacity=".55"/>
      <path d="M32 10 L32 55" stroke="#000" stroke-opacity=".12" stroke-width="2"/>
    </symbol>
    <symbol id="pc-favorites" viewBox="0 0 64 64">
      <path d="M14 40 Q10 30 18 26 Q26 22 32 28 Q38 22 46 26 Q54 30 50 40 Q46 48 32 56 Q18 48 14 40 Z" fill="currentColor"/>
      <path d="M20 34 Q24 28 30 32" stroke="#fffdf7" stroke-opacity=".7" stroke-width="3" stroke-linecap="round" fill="none"/>
      <circle cx="46" cy="14" r="8" class="ac"/>
      <path d="M46 10.5 L47 13 L49.5 14 L47 15 L46 17.5 L45 15 L42.5 14 L45 13 Z" class="wh"/>
    </symbol>
    <symbol id="pc-ranking" viewBox="0 0 64 64">
      <path d="M22 6 L42 6 L37 22 L27 22 Z" class="ac"/>
      <path d="M24 8 L28 8 L26 22 Z" class="wh" opacity=".35"/>
      <circle cx="32" cy="38" r="16" fill="currentColor"/>
      <circle cx="32" cy="38" r="11" fill="none" stroke="#fffdf7" stroke-opacity=".5" stroke-width="2.5"/>
      <path d="M32 30 L34.5 35 L40 36 L36 40 L37 45 L32 42.5 L27 45 L28 40 L24 36 L29.5 35 Z" class="wh"/>
    </symbol>
    <symbol id="pc-journal" viewBox="0 0 64 64">
      <path d="M8 14 Q16 10 24 14 L24 52 Q16 48 8 52 Z" fill="currentColor"/>
      <path d="M56 14 Q48 10 40 14 L40 52 Q48 48 56 52 Z" fill="currentColor"/>
      <rect x="24" y="12" width="16" height="42" class="wh"/>
      <rect x="24" y="12" width="16" height="42" class="dk"/>
      <rect x="27" y="20" width="10" height="3" rx="1.5" fill="#5a442a" opacity=".55"/>
      <rect x="27" y="27" width="10" height="2.5" rx="1.25" fill="#5a442a" opacity=".4"/>
      <rect x="27" y="33" width="10" height="2.5" rx="1.25" fill="#5a442a" opacity=".4"/>
      <circle cx="32" cy="49" r="2.5" class="ac"/>
    </symbol>
    <symbol id="pc-sources" viewBox="0 0 64 64">
      <path d="M18 52 Q20 30 34 16 Q42 8 52 8 Q52 20 44 30 Q34 42 24 46 Z" fill="currentColor"/>
      <path d="M24 42 L40 20" stroke="#fffdf7" stroke-opacity=".55" stroke-width="2.5" stroke-linecap="round"/>
      <path d="M12 56 Q22 50 30 52" stroke="currentColor" stroke-width="4" stroke-linecap="round" fill="none"/>
      <circle cx="53" cy="9" r="4.5" class="ac"/>
      <rect x="14" y="50" width="12" height="5" rx="2.5" fill="currentColor"/>
    </symbol>
    <symbol id="pc-terms" viewBox="0 0 64 64">
      <path d="M16 12 Q16 9 19 9 L45 9 Q48 9 48 12 L48 52 Q48 55 45 55 L19 55 Q16 55 16 52 Z" fill="currentColor"/>
      <rect x="16" y="9" width="8" height="46" rx="3" class="dk"/>
      <rect x="14" y="24" width="36" height="7" rx="2" class="ac"/>
      <rect x="14" y="24" width="36" height="7" rx="2" fill="none" stroke="#fffdf7" stroke-opacity=".35" stroke-width="1.5"/>
      <rect x="28" y="14" width="14" height="3" rx="1.5" class="wh" opacity=".6"/>
      <rect x="28" y="38" width="14" height="3" rx="1.5" class="wh" opacity=".6"/>
      <rect x="28" y="45" width="10" height="3" rx="1.5" class="wh" opacity=".45"/>
    </symbol>
    <symbol id="pc-interests" viewBox="0 0 64 64">
      <path d="M14 12 L50 12 L50 52 L32 42 L14 52 Z" fill="currentColor"/>
      <g fill="#fffdf7" stroke="#fffdf7">
        <circle cx="20" cy="17" r="1.6" stroke="none"/><circle cx="26" cy="17" r="1.6" stroke="none"/><circle cx="32" cy="17" r="1.6" stroke="none"/><circle cx="38" cy="17" r="1.6" stroke="none"/><circle cx="44" cy="17" r="1.6" stroke="none"/>
        <circle cx="20" cy="47" r="1.6" stroke="none"/><circle cx="26" cy="49" r="1.6" stroke="none"/><circle cx="38" cy="49" r="1.6" stroke="none"/><circle cx="44" cy="47" r="1.6" stroke="none"/>
      </g>
      <path d="M32 24 L34.5 30 L41 31 L36 35.5 L37.5 42 L32 38.5 L26.5 42 L28 35.5 L23 31 L29.5 30 Z" class="wh"/>
      <circle cx="50" cy="10" r="4" class="ac"/>
    </symbol>
    <symbol id="pc-settings" viewBox="0 0 64 64">
      <g fill="currentColor">
        <rect x="29" y="10" width="6" height="9" rx="2.5"/>
        <rect x="29" y="10" width="6" height="9" rx="2.5" transform="rotate(45 32 32)"/>
        <rect x="29" y="10" width="6" height="9" rx="2.5" transform="rotate(90 32 32)"/>
        <rect x="29" y="10" width="6" height="9" rx="2.5" transform="rotate(135 32 32)"/>
        <rect x="29" y="10" width="6" height="9" rx="2.5" transform="rotate(180 32 32)"/>
        <rect x="29" y="10" width="6" height="9" rx="2.5" transform="rotate(225 32 32)"/>
        <rect x="29" y="10" width="6" height="9" rx="2.5" transform="rotate(270 32 32)"/>
        <rect x="29" y="10" width="6" height="9" rx="2.5" transform="rotate(315 32 32)"/>
        <circle cx="32" cy="32" r="14"/>
      </g>
      <circle cx="32" cy="32" r="6" class="ac"/>
      <circle cx="32" cy="32" r="2.2" class="wh"/>
    </symbol>
  </defs>

  <use href="#pc-overview"  x="0"   width="64" height="64" color="#4a3a24"/>
  <use href="#pc-library"   x="64"  width="64" height="64" color="#4a3a24"/>
  <use href="#pc-favorites" x="128" width="64" height="64" color="#4a3a24"/>
  <use href="#pc-ranking"   x="192" width="64" height="64" color="#4a3a24"/>
  <use href="#pc-journal"   x="256" width="64" height="64" color="#4a3a24"/>
  <use href="#pc-sources"   x="320" width="64" height="64" color="#4a3a24"/>
  <use href="#pc-terms"     x="384" width="64" height="64" color="#4a3a24"/>
  <use href="#pc-interests" x="448" width="64" height="64" color="#4a3a24"/>
  <use href="#pc-settings"  x="512" width="64" height="64" color="#4a3a24"/>
</svg>
