<svg xmlns="http://www.w3.org/2000/svg" width="576" height="64" viewBox="0 0 576 64">
  <!-- 铅字编辑部 · 复古印刷风侧栏图标组（9 枚 · 64×64 格线 · 主体 currentColor 墨黑 · .ltac 印刷红 #b02a26 / .ltwh 纸白） -->
  <defs>
    <style>
      .ltac { fill: #b02a26; }
      .ltdk { fill: #000; opacity: .2; }
      .ltwh { fill: #fbf7ec; opacity: .92; }
    </style>
    <symbol id="lt-overview" viewBox="0 0 64 64">
      <rect x="12" y="22" width="40" height="32" rx="2" fill="currentColor"/>
      <rect x="12" y="22" width="40" height="32" rx="2" class="ltdk"/>
      <rect x="10" y="18" width="44" height="6" rx="2" fill="currentColor"/>
      <rect x="10" y="18" width="44" height="6" rx="2" class="ltac"/>
      <rect x="20" y="32" width="24" height="3.5" rx="1.75" class="ltwh" opacity=".7"/>
      <rect x="20" y="40" width="18" height="3.5" rx="1.75" class="ltwh" opacity=".55"/>
      <rect x="20" y="48" width="12" height="3.5" rx="1.75" class="ltwh" opacity=".45"/>
    </symbol>
    <symbol id="lt-library" viewBox="0 0 64 64">
      <rect x="14" y="12" width="36" height="44" rx="2" fill="currentColor"/>
      <rect x="14" y="12" width="36" height="44" rx="2" class="ltdk"/>
      <rect x="14" y="12" width="36" height="9" fill="#fbf7ec" opacity=".9"/>
      <rect x="18" y="13" width="12" height="7" fill="#b02a26"/>
      <rect x="18" y="26" width="28" height="3" rx="1.5" class="ltwh" opacity=".6"/>
      <rect x="18" y="33" width="24" height="3" rx="1.5" class="ltwh" opacity=".55"/>
      <rect x="18" y="40" width="20" height="3" rx="1.5" class="ltwh" opacity=".5"/>
      <rect x="18" y="47" width="16" height="5" rx="1.5" class="ltac"/>
    </symbol>
    <symbol id="lt-favorites" viewBox="0 0 64 64">
      <path d="M14 38 Q10 26 20 23 Q30 20 32 27 Q34 20 44 23 Q54 26 50 38 Q46 48 32 56 Q18 48 14 38 Z" fill="currentColor"/>
      <path d="M14 38 Q10 26 20 23 Q30 20 32 27 Q34 20 44 23 Q54 26 50 38 Q46 48 32 56 Q18 48 14 38 Z" class="ltdk"/>
      <circle cx="48" cy="14" r="8" class="ltac"/>
      <path d="M48 10.5 L49 13 L51.5 14 L49 15 L48 17.5 L47 15 L44.5 14 L47 13 Z" fill="#fbf7ec"/>
      <path d="M24 32 Q28 27 32 31" stroke="#fbf7ec" stroke-opacity=".8" stroke-width="2.5" stroke-linecap="round" fill="none"/>
    </symbol>
    <symbol id="lt-ranking" viewBox="0 0 64 64">
      <rect x="12" y="36" width="12" height="16" fill="currentColor"/>
      <rect x="12" y="36" width="12" height="16" class="ltdk"/>
      <rect x="28" y="24" width="12" height="28" fill="currentColor"/>
      <rect x="28" y="24" width="12" height="28" class="ltdk"/>
      <rect x="44" y="12" width="12" height="40" fill="currentColor"/>
      <rect x="44" y="12" width="12" height="40" class="ltdk"/>
      <rect x="12" y="26" width="12" height="8" fill="#b02a26"/>
      <rect x="28" y="16" width="12" height="6" fill="#b02a26"/>
      <rect x="44" y="6" width="12" height="5" fill="#b02a26"/>
      <circle cx="52" cy="50" r="3" fill="#b02a26" opacity=".8"/>
    </symbol>
    <symbol id="lt-journal" viewBox="0 0 64 64">
      <rect x="8" y="14" width="14" height="40" rx="2" fill="currentColor"/>
      <rect x="42" y="14" width="14" height="40" rx="2" fill="currentColor"/>
      <rect x="22" y="12" width="20" height="44" fill="#fbf7ec"/>
      <rect x="22" y="12" width="20" height="44" class="ltdk"/>
      <rect x="22" y="11" width="20" height="3" class="ltac"/>
      <rect x="26" y="20" width="12" height="3" rx="1.5" fill="#2a2a2a" opacity=".5"/>
      <rect x="26" y="27" width="12" height="2.5" rx="1.25" fill="#2a2a2a" opacity=".4"/>
      <rect x="26" y="33" width="12" height="2.5" rx="1.25" fill="#2a2a2a" opacity=".4"/>
      <circle cx="32" cy="48" r="3" class="ltac"/>
    </symbol>
    <symbol id="lt-sources" viewBox="0 0 64 64">
      <rect x="12" y="16" width="40" height="34" rx="2" fill="currentColor"/>
      <rect x="12" y="16" width="40" height="34" rx="2" class="ltdk"/>
      <rect x="12" y="16" width="40" height="7" fill="#fbf7ec" opacity=".9"/>
      <rect x="18" y="18" width="14" height="3" fill="#b02a26"/>
      <rect x="18" y="28" width="28" height="3" rx="1.5" class="ltwh" opacity=".6"/>
      <rect x="18" y="35" width="22" height="3" rx="1.5" class="ltwh" opacity=".55"/>
      <circle cx="46" cy="44" r="2.5" class="ltac"/>
      <path d="M14 8 L20 8 M17 6 L17 10" stroke="#b02a26" stroke-width="1.6" stroke-linecap="round"/>
    </symbol>
    <symbol id="lt-terms" viewBox="0 0 64 64">
      <rect x="14" y="9" width="36" height="48" rx="3" fill="currentColor"/>
      <rect x="14" y="9" width="36" height="48" rx="3" class="ltdk"/>
      <rect x="14" y="9" width="36" height="8" rx="3" fill="#fbf7ec" opacity=".9"/>
      <rect x="30" y="12" width="12" height="3" fill="#b02a26"/>
      <rect x="20" y="24" width="24" height="3.5" rx="1.75" class="ltwh" opacity=".65"/>
      <rect x="20" y="31" width="24" height="3.5" rx="1.75" class="ltwh" opacity=".6"/>
      <rect x="20" y="38" width="16" height="3.5" rx="1.75" class="ltwh" opacity=".5"/>
      <rect x="20" y="48" width="24" height="5" rx="1.5" class="ltac"/>
    </symbol>
    <symbol id="lt-interests" viewBox="0 0 64 64">
      <rect x="12" y="24" width="40" height="28" rx="2" fill="currentColor"/>
      <rect x="12" y="24" width="40" height="28" rx="2" class="ltdk"/>
      <rect x="18" y="18" width="40" height="28" rx="2" fill="currentColor"/>
      <rect x="18" y="18" width="40" height="28" rx="2" fill="none" stroke="#b02a26" stroke-width="2"/>
      <rect x="18" y="18" width="9" height="6" fill="#b02a26"/>
      <rect x="24" y="30" width="28" height="3.5" rx="1.75" class="ltwh" opacity=".65"/>
      <rect x="24" y="37" width="20" height="3.5" rx="1.75" class="ltwh" opacity=".55"/>
    </symbol>
    <symbol id="lt-settings" viewBox="0 0 64 64">
      <rect x="12" y="4" width="40" height="6" rx="2" class="ltac"/>
      <rect x="12" y="8" width="40" height="50" rx="3" fill="currentColor"/>
      <rect x="12" y="8" width="40" height="50" rx="3" class="ltdk"/>
      <rect x="16" y="13" width="32" height="11" rx="2" fill="#fbf7ec" opacity=".9"/>
      <rect x="26" y="17" width="12" height="3" fill="#b02a26"/>
      <rect x="18" y="28" width="28" height="11" rx="2" fill="#fbf7ec" opacity=".9"/>
      <rect x="26" y="32" width="12" height="3" fill="#2a2a2a" opacity=".55"/>
      <rect x="18" y="43" width="28" height="11" rx="2" fill="#fbf7ec" opacity=".9"/>
      <rect x="26" y="47" width="12" height="3" fill="#2a2a2a" opacity=".55"/>
    </symbol>
  </defs>
  <use href="#lt-overview"  x="0"   width="64" height="64" color="#2a2620"/>
  <use href="#lt-library"   x="64"  width="64" height="64" color="#2a2620"/>
  <use href="#lt-favorites" x="128" width="64" height="64" color="#2a2620"/>
  <use href="#lt-ranking"   x="192" width="64" height="64" color="#2a2620"/>
  <use href="#lt-journal"   x="256" width="64" height="64" color="#2a2620"/>
  <use href="#lt-sources"   x="320" width="64" height="64" color="#2a2620"/>
  <use href="#lt-terms"     x="384" width="64" height="64" color="#2a2620"/>
  <use href="#lt-interests" x="448" width="64" height="64" color="#2a2620"/>
  <use href="#lt-settings"  x="512" width="64" height="64" color="#2a2620"/>
</svg>
